<?xml version="1.0" standalone="no"?><!DOCTYPE svg PUBLIC "-//W3C//DTD SVG 1.1//EN" "http://www.w3.org/Graphics/SVG/1.1/DTD/svg11.dtd"><svg t="1740646040269" class="icon" viewBox="0 0 1024 1024" version="1.1" xmlns="http://www.w3.org/2000/svg" p-id="7087" width="256" height="256" xmlns:xlink="http://www.w3.org/1999/xlink"><path d="M177.834667 455.338667c-8.078222-1.479111-15.701333 3.754667-17.294223 11.719111-1.024 5.461333-1.024 7.850667-0.910222 11.264l0.113778 3.527111c0 8.192 6.599111 14.791111 14.791111 14.791111s14.791111-6.599111 14.791111-14.791111c0-1.934222 0-3.299556-0.113778-4.551111-0.113778-2.048-0.113778-2.161778 0.341334-4.664889 1.479111-8.078222-3.754667-15.815111-11.719111-17.294222z m0 0M693.248 197.518222c2.503111 1.706667 5.347556 2.503111 8.192 2.503111 4.778667 0 9.443556-2.275556 12.288-6.485333 12.515556-18.773333 33.564444-29.923556 56.092444-29.923556 8.192 0 14.791111-6.599111 14.791112-14.791111s-6.599111-14.791111-14.791112-14.791111c-32.426667 0-62.464 16.042667-80.554666 43.008-4.664889 6.826667-2.844444 16.042667 3.982222 20.48z m0 0M268.401778 373.077333c-36.295111 0-69.973333 17.976889-90.225778 48.241778-4.551111 6.712889-2.730667 15.928889 3.982222 20.48 2.503111 1.706667 5.347556 2.503111 8.192 2.503111 4.778667 0 9.443556-2.275556 12.288-6.599111 14.791111-21.959111 39.367111-35.157333 65.763556-35.157333 8.192 0 14.791111-6.599111 14.791111-14.791111-0.113778-8.078222-6.712889-14.677333-14.791111-14.677334z m0 0" p-id="7088" fill="#00a76f"></path><path d="M740.238222 611.100444c-40.504889 0-78.165333 20.138667-100.807111 53.816889-4.551111 6.826667-2.730667 15.928889 4.096 20.48 2.503111 1.706667 5.347556 2.503111 8.192 2.503111 4.778667 0 9.443556-2.275556 12.288-6.599111 17.066667-25.486222 45.624889-40.732444 76.231111-40.732444 8.078222 0 14.791111-6.599111 14.791111-14.791111-0.113778-8.078222-6.712889-14.677333-14.791111-14.677334z m0 0" p-id="7089" fill="#00a76f"></path><path d="M755.029333 516.096c-86.129778 0-161.336889 47.445333-201.045333 117.418667l-104.675556-51.313778c16.611556-29.809778 26.168889-64.056889 26.168889-100.579556 0-23.096889-3.868444-45.397333-10.922666-66.104889l160.881777-69.176888c33.905778 42.325333 86.016 69.518222 144.384 69.518222 101.944889 0 185.002667-82.944 185.002667-184.888889S871.879111 45.966222 769.820444 45.966222c-101.944889 0-184.888889 82.944-184.888888 185.002667 0 22.414222 3.982222 43.918222 11.377777 63.829333L437.816889 362.951111c-37.546667-53.361778-99.441778-88.291556-169.415111-88.291555-114.119111 0-207.075556 92.842667-207.075556 207.075555 0 114.119111 92.842667 207.075556 207.075556 207.075556 56.092444 0 106.951111-22.414222 144.270222-58.823111L531.569778 688.355556c-5.006222 18.773333-7.623111 38.570667-7.623111 58.823111 0 127.431111 103.651556 230.968889 230.968889 230.968889 127.431111 0 231.082667-103.651556 231.082666-230.968889 0-127.431111-103.651556-231.082667-230.968889-231.082667z m14.677334-410.965333c69.404444 0 125.952 56.547556 125.952 125.952s-56.547556 125.952-125.952 125.952-125.952-56.547556-125.952-125.952c0-69.518222 56.547556-125.952 125.952-125.952zM268.401778 629.76c-81.692444 0-148.024889-66.446222-148.024889-148.024889 0-81.692444 66.446222-148.024889 148.024889-148.024889 81.692444 0 148.138667 66.446222 148.138666 148.024889-0.113778 81.692444-66.56 148.024889-148.138666 148.024889z m486.627555 289.450667c-94.890667 0-172.032-77.141333-172.032-172.032 0-94.890667 77.141333-172.032 172.032-172.032 94.890667 0 172.032 77.141333 172.032 172.032 0 94.890667-77.255111 172.032-172.032 172.032z m0 0" p-id="7090" fill="#00a76f"></path></svg>